<?xml version="1.0" encoding="iso-8859-1"?>
<!-- Generator: Adobe Illustrator 18.0.0, SVG Export Plug-In . SVG Version: 6.00 Build 0)  -->
<!DOCTYPE svg PUBLIC "-//W3C//DTD SVG 1.1//EN" "http://www.w3.org/Graphics/SVG/1.1/DTD/svg11.dtd">
<svg version="1.1" id="Layer_1" xmlns="http://www.w3.org/2000/svg" xmlns:xlink="http://www.w3.org/1999/xlink" x="0px" y="0px"
	 viewBox="-49 141 512 512" style="enable-background:new -49 141 512 512;" xml:space="preserve">
<g>
	<path style="fill:#606060;" d="M2.2,516.467c-4.71,0-8.533,3.823-8.533,8.533v17.067c0,4.71,3.823,8.533,8.533,8.533
		s8.533-3.823,8.533-8.533V525C10.733,520.29,6.91,516.467,2.2,516.467"/>
	<path style="fill:#606060;" d="M2.2,567.667c-4.71,0-8.533,3.823-8.533,8.533v17.067c0,4.71,3.823,8.533,8.533,8.533
		s8.533-3.823,8.533-8.533V576.2C10.733,571.49,6.91,567.667,2.2,567.667"/>
	<path style="fill:#606060;" d="M2.2,465.267c-4.71,0-8.533,3.823-8.533,8.533v17.067c0,4.71,3.823,8.533,8.533,8.533
		s8.533-3.823,8.533-8.533V473.8C10.733,469.09,6.91,465.267,2.2,465.267"/>
	<path style="fill:#606060;" d="M36.333,516.467c-4.71,0-8.533,3.823-8.533,8.533v17.067c0,4.71,3.823,8.533,8.533,8.533
		s8.533-3.823,8.533-8.533V525C44.867,520.29,41.044,516.467,36.333,516.467"/>
	<path style="fill:#606060;" d="M36.333,465.267c-4.71,0-8.533,3.823-8.533,8.533v17.067c0,4.71,3.823,8.533,8.533,8.533
		s8.533-3.823,8.533-8.533V473.8C44.867,469.09,41.044,465.267,36.333,465.267"/>
	<path style="fill:#606060;" d="M36.333,567.667c-4.71,0-8.533,3.823-8.533,8.533v17.067c0,4.71,3.823,8.533,8.533,8.533
		s8.533-3.823,8.533-8.533V576.2C44.867,571.49,41.044,567.667,36.333,567.667"/>
	<path style="fill:#606060;" d="M420.333,296.262c0,4.71-3.823,8.533-8.533,8.533s-8.533-3.823-8.533-8.533v-17.067
		c0-4.71,3.823-8.533,8.533-8.533s8.533,3.823,8.533,8.533V296.262z M420.333,347.462c0,4.71-3.823,8.533-8.533,8.533
		s-8.533-3.823-8.533-8.533v-17.067c0-4.71,3.823-8.533,8.533-8.533s8.533,3.823,8.533,8.533V347.462z M420.333,398.662
		c0,4.71-3.823,8.533-8.533,8.533s-8.533-3.823-8.533-8.533v-17.067c0-4.71,3.823-8.533,8.533-8.533s8.533,3.823,8.533,8.533
		V398.662z M420.333,449.862c0,4.71-3.823,8.533-8.533,8.533s-8.533-3.823-8.533-8.533v-17.067c0-4.71,3.823-8.533,8.533-8.533
		s8.533,3.823,8.533,8.533V449.862z M420.333,501.062c0,4.71-3.823,8.533-8.533,8.533s-8.533-3.823-8.533-8.533v-17.067
		c0-4.71,3.823-8.533,8.533-8.533s8.533,3.823,8.533,8.533V501.062z M420.333,552.262c0,4.71-3.823,8.533-8.533,8.533
		s-8.533-3.823-8.533-8.533v-17.067c0-4.71,3.823-8.533,8.533-8.533s8.533,3.823,8.533,8.533V552.262z M420.333,603.462
		c0,4.71-3.823,8.533-8.533,8.533s-8.533-3.823-8.533-8.533v-17.067c0-4.71,3.823-8.533,8.533-8.533s8.533,3.823,8.533,8.533
		V603.462z M386.2,296.262c0,4.71-3.823,8.533-8.533,8.533s-8.533-3.823-8.533-8.533v-17.067c0-4.71,3.823-8.533,8.533-8.533
		s8.533,3.823,8.533,8.533V296.262z M386.2,347.462c0,4.71-3.823,8.533-8.533,8.533s-8.533-3.823-8.533-8.533v-17.067
		c0-4.71,3.823-8.533,8.533-8.533s8.533,3.823,8.533,8.533V347.462z M386.2,398.662c0,4.71-3.823,8.533-8.533,8.533
		s-8.533-3.823-8.533-8.533v-17.067c0-4.71,3.823-8.533,8.533-8.533s8.533,3.823,8.533,8.533V398.662z M386.2,449.862
		c0,4.71-3.823,8.533-8.533,8.533s-8.533-3.823-8.533-8.533v-17.067c0-4.71,3.823-8.533,8.533-8.533s8.533,3.823,8.533,8.533
		V449.862z M386.2,501.062c0,4.71-3.823,8.533-8.533,8.533s-8.533-3.823-8.533-8.533v-17.067c0-4.71,3.823-8.533,8.533-8.533
		s8.533,3.823,8.533,8.533V501.062z M386.2,552.262c0,4.71-3.823,8.533-8.533,8.533s-8.533-3.823-8.533-8.533v-17.067
		c0-4.71,3.823-8.533,8.533-8.533s8.533,3.823,8.533,8.533V552.262z M386.2,603.462c0,4.71-3.823,8.533-8.533,8.533
		s-8.533-3.823-8.533-8.533v-17.067c0-4.71,3.823-8.533,8.533-8.533s8.533,3.823,8.533,8.533V603.462z M147.267,610.332v-34.133
		v-34.133v-34.133v-34.133v-34.133v-42.667h25.6H207h34.133H283.8h34.133H335v238.933h-17.067V422.598
		c0-4.71-3.823-8.533-8.533-8.533c-4.71,0-8.533,3.823-8.533,8.533v213.333H283.8V422.598c0-4.71-3.823-8.533-8.533-8.533
		c-4.71,0-8.533,3.823-8.533,8.533v213.333h-17.067V422.598c0-4.71-3.823-8.533-8.533-8.533c-4.71,0-8.533,3.823-8.533,8.533
		v213.333h-17.067V422.598c0-4.71-3.823-8.533-8.533-8.533s-8.533,3.823-8.533,8.533v213.333H181.4V422.598
		c0-4.71-3.823-8.533-8.533-8.533s-8.533,3.823-8.533,8.533v213.333h-17.067V610.332z M-23.4,448.198h8.533h51.2h34.133H104.6h25.6
		v17.067H70.467c-4.71,0-8.533,3.823-8.533,8.533v162.133H-23.4V448.198z M96.067,243.398c0-4.71,3.823-8.533,8.533-8.533
		s8.533,3.823,8.533,8.533v187.733H96.067V243.398z M104.6,567.665h25.6v17.067h-25.6c-4.71,0-8.533-3.823-8.533-8.533
		S99.89,567.665,104.6,567.665L104.6,567.665z M104.6,533.532h25.6v17.067h-25.6c-4.71,0-8.533-3.823-8.533-8.533
		C96.067,537.355,99.89,533.532,104.6,533.532L104.6,533.532z M130.2,516.465h-25.6c-4.71,0-8.533-3.823-8.533-8.533
		c0-4.71,3.823-8.533,8.533-8.533h25.6V516.465z M104.6,618.865c-4.71,0-8.533-3.823-8.533-8.533s3.823-8.533,8.533-8.533h25.6
		v17.067H104.6z M130.2,243.398c0-4.71,3.823-8.533,8.533-8.533s8.533,3.823,8.533,8.533v136.533h-8.533
		c-4.71,0-8.533,3.823-8.533,8.533V243.398z M130.2,183.665c0-4.71,3.823-8.533,8.533-8.533s8.533,3.823,8.533,8.533v25.6
		c0,4.71-3.823,8.533-8.533,8.533s-8.533-3.823-8.533-8.533V183.665z M172.867,234.865c4.71,0,8.533,3.823,8.533,8.533v136.533
		h-17.067V243.398C164.333,238.688,168.156,234.865,172.867,234.865L172.867,234.865z M164.333,183.665
		c0-4.71,3.823-8.533,8.533-8.533s8.533,3.823,8.533,8.533v25.6c0,4.71-3.823,8.533-8.533,8.533s-8.533-3.823-8.533-8.533V183.665z
		 M207,234.865c4.71,0,8.533,3.823,8.533,8.533v136.533h-17.067V243.398C198.467,238.688,202.29,234.865,207,234.865L207,234.865z
		 M445.933,234.865h-17.067v-25.6c0-4.71-3.823-8.533-8.533-8.533h-51.2c-4.71,0-8.533,3.823-8.533,8.533v25.6h-17.067
		c-4.71,0-8.533,3.823-8.533,8.533v136.533h-8.533v-25.6c0-4.71-3.823-8.533-8.533-8.533H309.4v-8.533
		c0-4.71-3.823-8.533-8.533-8.533s-8.533,3.823-8.533,8.533v8.533H283.8c-4.71,0-8.533,3.823-8.533,8.533v25.6h-25.6V209.265
		c0-4.71-3.823-8.533-8.533-8.533h-25.6v-51.2c0-4.71-3.823-8.533-8.533-8.533H104.6c-4.71,0-8.533,3.823-8.533,8.533v51.2h-25.6
		c-4.71,0-8.533,3.823-8.533,8.533v221.867H44.867v-25.6c0-4.71-3.823-8.533-8.533-8.533h-51.2c-4.71,0-8.533,3.823-8.533,8.533
		v25.6h-8.533c-4.71,0-8.533,3.823-8.533,8.533v204.8c0,4.71,3.823,8.533,8.533,8.533h102.4h68.267h204.8h102.4
		c4.71,0,8.533-3.823,8.533-8.533V243.398C454.467,238.688,450.644,234.865,445.933,234.865L445.933,234.865z"/>
</g>
</svg>
