<?xml version="1.0" encoding="utf-8"?>
<!-- Generator: Adobe Illustrator 18.0.0, SVG Export Plug-In . SVG Version: 6.00 Build 0)  -->
<!DOCTYPE svg PUBLIC "-//W3C//DTD SVG 1.1//EN" "http://www.w3.org/Graphics/SVG/1.1/DTD/svg11.dtd">
<svg version="1.1" id="Layer_1" xmlns="http://www.w3.org/2000/svg" xmlns:xlink="http://www.w3.org/1999/xlink" x="0px" y="0px"
	 viewBox="0 0 200 211.3" enable-background="new 0 0 200 211.3" xml:space="preserve">
<g>
	<circle fill="#15BAC6" cx="97.7" cy="103.4" r="87.3"/>
</g>
<g>
	<polygon fill="#15BAC6" points="39.6,70.3 85.3,37.7 99,34.3 109,38.3 158,70.3 156.8,76.7 133.2,92.9 72.7,98.4 39.6,73.8 	"/>
</g>
<g>
	<circle fill="#15BAC6" cx="168.1" cy="34.3" r="24.8"/>
</g>
<g>
	<circle fill="#15BAC6" cx="133.2" cy="177" r="24.8"/>
</g>
<g>
	<path fill="#F3F4EE" d="M95.5,171.6c-2-5.6-1.4-11.1-2.1-16.5c-0.4-3.2-1.4-4.1-4.6-4.1c-16.3,0.1-32.6,0.1-49,0.1
		c-9.2,0-11.7-2.4-11.7-11.5c0-21.7,0.1-43.3-0.1-65c0-4.6,1.5-7.9,5.3-10.5C48.9,53.5,64.2,42.5,79.7,32c10.2-6.9,27.8-6.6,38,0.4
		c15,10.4,29.9,21.1,45,31.4c4,2.7,5.6,6,5.5,10.9c-0.2,21.8-0.1,43.6-0.1,65.5c0,8.5-2.4,10.9-11.1,10.9c-7,0-14,0-21,0
		c-5.9,0-6.1,0.6-3.1,5.9c2.5,4.5,4.9,9.1,7.5,13.5c1.2,2,1.1,3-1.1,4.2c-4.7,2.4-9.4,5-13.9,7.7c-2.3,1.4-3.7,1.3-5-1.4
		c-2.3-4.6-5.2-8.9-7.4-13.5c-1.7-3.7-3.6-3.9-6.8-1.8C103,167.8,99.5,169.4,95.5,171.6z M163.1,107.4c0-11-0.1-22,0.1-33
		c0-2.9-0.7-4.9-3.2-6.6c-14.8-10.2-29.4-20.6-44.2-30.7c-10.2-7-25.1-6.8-35.3,0.2C65.8,47.4,51.3,57.6,36.6,67.7
		c-2.6,1.8-3.7,3.8-3.6,7c0.1,21.8,0.1,43.7,0,65.5c0,4.5,1.5,6.2,6.1,6.2c15-0.2,30-0.1,45-0.1c13.3,0,17.6-2.4,18.3,11.2
		c0.3,5.7-4,6.2,1.1,3.3c8.7-5.1,11.2-5.8,16,2.8c0.6,1,0.6,2.9,1.1,3.9c5.5,9.8,3.4,11.4,12.9,5.9c2.1-1.2,2.9-2.1,1.3-4.5
		c-2.5-3.9-5.3-7.6-7.1-11.9c-0.9-2.1-6.7-5.6-3.7-8.3c2-1.7,6.3-2.7,9.2-3c1-0.1,2.9-0.4,3.9-0.4c6.8,0,13.1,0.8,19.9,1.1
		c4.5,0.2,6.2-1.3,6.1-6C162.9,129.4,163.1,118.4,163.1,107.4z"/>
</g>
<g>
	<path fill="#15BAC6" d="M175.6,185.2c-5.3,0-9.5-4-9.6-9.3c-0.1-5.1,4.2-9.4,9.5-9.5c4.7-0.1,9.2,4.3,9.4,9.1
		C185,180.7,180.7,185.1,175.6,185.2z"/>
</g>
<g>
	<path fill="#131518" d="M163.1,107.4c0,11-0.2,22,0.1,33c0.1,4.7-1.6,6.2-6.1,6c-6.8-0.3-13.7-0.1-20.5-0.1c-1,0-10.8,0.4-11.8,0.5
		c-2.9,0.3-1.7,4-1.7,4l4,6.2c0,0,5.2,7.9,7.7,11.8c1.5,2.4,0.3,2.9-1.8,4.1c-9.5,5.6-7.5,5-13-4.8c-0.6-1-1.4-2.1-2-3.1
		c-4.8-8.6-6.3-9.9-15-4.8c-5.1,3-1.3,3.5-1.6-2.2c-0.7-13.5-4-11.8-17.3-11.8c-15,0-30-0.1-45,0.1c-4.6,0.1-6.1-1.7-6.1-6.2
		c0.1-21.8,0.1-43.7,0-65.5c0-3.2,1-5.2,3.6-7c14.7-10.1,29.2-20.3,43.8-30.5c10.2-7.1,25.1-7.2,35.3-0.2
		c14.8,10.2,29.4,20.6,44.2,30.7c2.5,1.7,3.3,3.7,3.2,6.6C163,85.4,163.1,96.4,163.1,107.4z M81.7,43.3
		c-10.6,7.4-21.1,14.9-31.8,22.3c-10.3,7.1-10.4,7,0.1,14.2c0.8,0.5,1.4,1.7,2.5,1.1c1.1-0.5,0.7-1.7,0.7-2.7c0.1-1.2,0.2-2.4,0-3.5
		c-0.6-3.8,0.9-4.8,4.7-4.7c10.3,0.2,20.6,0,30.9,0c7.7-0.1,14.7,0.3,21.2,0c8.5,0,17,0.1,25.5,0.1c7.4,0,7.4,0,7.5,7.2
		c0,1.3-0.8,3,1,4.2c3.1-2.3,6-4.8,9.2-6.8c3.3-2.1,2-3.3-0.3-4.9c-10.4-7.2-20.7-14.5-31.2-21.5c-3.2-2.2-9.8-6.1-9.8-6.1
		s-7.2-4.9-15.5-4.5C90.3,38.2,81.7,43.3,81.7,43.3z M55.1,118.4c5.3-4.3,9.1-10.1,14-14.7c2.8-2.6,1.7-4.1-1.1-5.3
		C58.6,91.2,49.3,84,39.6,76.6c0,20.4,0,39.7,0,60.1C45.2,130,50.1,124.2,55.1,118.4z M116,93.2c6.8,6.4,16.2-3,16.2-3l1.6-1.2
		c0,0,5.4-5.8,5.3-10.5c-0.1-3.8-1-4.7-4.7-4.6c-23,0.2-46,0.1-69,0.1c-8.7,0-8.6,0-8.3,8.5c0.1,2.1,0.9,3.3,2.5,4.4
		c3.4,2.4,6.9,4.7,9.9,7.6c3.5,3.3,6.1,3.1,8.5-0.9c0.3,0,0.6-0.1,0.9-0.3c0.7,0,1.4,0,2,0C92.7,93.2,104.3,93.2,116,93.2z M43,140
		c16.3,0,32.6,0,48.9,0c3.1,0.8,4.5-0.1,4.1-3.6c-0.9-7-1.4-14.1-2.1-21.1c0.4-1.5-0.6-3.2,0.5-5c10.8,8.1,22.2,15.5,32.2,24.4
		c8.6,7.7,17.9,4.9,28.6,5.7c-13.2-14.5-25.4-27.9-37.5-41.3c-1.3-1.5-2.8-1.5-4.5-1.5c-10,0-20,0-29.9,0c-1.7,0-3.1,0.1-4.4,1.6
		c-11.9,13.4-23.9,26.7-35.9,40.1c-0.2,0.3-0.4,0.5-0.6,0.8C42.5,140,42.8,140,43,140z M125.2,100.7c10.7,12,20.9,23.5,31.6,35.5
		c0-20.1,0-39.4,0-59.6C146,84.9,135.7,92.7,125.2,100.7z M99.1,122.3c0.9,9.9,1.4,18.5,2.6,27.1c0.3,2.6,2.7,2.1,5.5,2.9
		c1.9,0.6,1,2.6,3.3,1c2.6-1.8,5.2,1.4,5.2,1.4s5.6,10.2,8.4,15.2c0.9,1.6,1.7,2.5,3.7,1.2c1.9-1.2,2-2.1,0.8-3.9
		c-1.7-2.6-3.2-5.4-4.6-8.2c-1.7-3.2-4.7-6.5-4.6-9.6c0.1-2.9,5-3.6,7.8-5.3c2-1.3-0.6-1.8-2.6-3.2c-3.8-2.7-4.8-5.8-8.5-8.6
		c-4.4-3.3-8.7-6.7-13.1-9.9C101.4,121.2,99.3,119.9,99.1,122.3z"/>
</g>
<g>
	<path fill="#F9F8F8" d="M91.9,140c-16.3,0-32.6,0-48.9,0c0-0.3,0-0.6-0.1-0.9c12-13.3,24-26.7,35.9-40.1c1.3-1.5,2.7-1.6,4.4-1.6
		c10,0,20,0,29.9,0c1.7,0,3.2,0.1,4.5,1.5c12.1,13.4,24.3,26.8,37.5,41.3c-10.6-0.8-20,2-28.6-5.7c-10-8.9-21.3-16.3-32.2-24.4
		c-1.1,1.8,0,3.5-0.5,5c-5-0.9-2.9,3.2-2.7,4.7C92.4,126.6,91.8,133.3,91.9,140z"/>
</g>
<g>
	<path fill="#C1DBF1" d="M78.1,93.5c-2.4,4-5,4.2-8.5,0.9c-3-2.8-6.5-5.2-9.9-7.6c-1.6-1.1-2.5-2.3-2.5-4.4
		c-0.3-8.5-0.4-8.5,8.3-8.5c23,0,46,0.1,69-0.1c3.7,0,4.7,0.8,4.7,4.6c0.1,4.8,0,7-5.3,10.5c-0.5,0.4-1.1,0.8-1.6,1.2
		c-4.9,4-9.5,9.4-16.2,3c-1.4-1.4-3.1-0.9-4.7-0.9c-8,0-16-0.1-24,0c-2.1,0-4.4-0.7-6.2,0.9c-0.7,0-1.4,0-2,0
		C78.5,92.7,78.3,93,78.1,93.5z"/>
</g>
<g>
	<path fill="#F3F3F2" d="M125.2,100.7c10.5-8,20.8-15.8,31.6-24c0,20.2,0,39.5,0,59.6C146.1,124.2,135.9,112.7,125.2,100.7z"/>
</g>
<g>
	<path fill="#F3F3F2" d="M55.1,118.4c-4.9,5.8-9.9,11.6-15.5,18.3c0-20.4,0-39.7,0-60.1c9.7,7.5,19,14.6,28.4,21.8
		c-0.7,0.9-1.6,1.7-2.2,2.7C62.3,106.9,56.9,111.6,55.1,118.4z"/>
</g>
<g>
	<path fill="#CECECE" d="M91.9,140c-0.2-6.7,0.5-13.4-0.7-20.1c-0.3-1.5-2.4-5.6,2.7-4.7c0.7,7,1.2,14.1,2.1,21.1
		C96.4,139.9,95.1,140.8,91.9,140z"/>
</g>
<g>
	<path fill="#B0B0B0" d="M55.1,118.4c1.8-6.8,7.2-11.5,10.7-17.3c0.6-1,1.4-1.8,2.2-2.7c2.9,1.2,3.9,2.6,1.1,5.3
		C64.2,108.3,60.4,114.1,55.1,118.4z"/>
</g>
<g>
	<path fill="#CBE7F9" d="M81,93.2c1.9-1.6,4.2-0.9,6.2-0.9c8-0.1,16-0.1,24,0c1.6,0,3.4-0.5,4.7,0.9C104.3,93.2,92.7,93.2,81,93.2z"
		/>
</g>
<g>
	<path fill="#CBE7F9" d="M78.1,93.5c0.2-0.5,0.4-0.8,0.9-0.3C78.7,93.4,78.4,93.5,78.1,93.5z"/>
</g>
<g>
	<path fill="#CECECE" d="M42.9,139.1c0.1,0.3,0.2,0.6,0.1,0.9c-0.3,0-0.5-0.1-0.8-0.1C42.5,139.7,42.7,139.4,42.9,139.1z"/>
</g>
<g>
	<circle fill="#15BAC6" cx="21.3" cy="28.3" r="12.3"/>
</g>
<g>
	<path fill="#FFFFFF" d="M106.6,66.3c-3,1.2-5.3,1.5-9,1.5c-8.4,0-15.7-5.8-15.7-15c0-9.7,7.5-17.7,18.5-17.7
		c8.4,0,15.3,5.5,15.3,13.9c0,6.4-4.1,10.8-9.7,10.8c-2.2,0-3.9-1-4.4-3.2h-0.1c-1.5,2.2-3.6,3.2-6,3.2c-3.4,0-5.8-2.3-5.8-6.4
		c0-5.5,4.2-10.6,11.4-10.6c2.2,0,5,0.6,6.1,1.2L106,53c-0.3,2.1-0.1,3.1,1,3.1c1.9,0.1,4.5-2.1,4.5-7.2c0-5.8-4.2-10.3-11.6-10.3
		c-7.3,0-13.6,5.1-13.6,13.5c0,7.8,5.1,12.1,12.6,12.1c2.3,0,5-0.5,6.8-1.3L106.6,66.3z M101.5,47.5c-0.4,0-0.7-0.1-1-0.1
		c-3,0-4.9,2.6-4.9,5.2c0,1.7,0.7,2.7,2.1,2.7s3-1.5,3.4-4.3L101.5,47.5z"/>
</g>
<g>
	
		<rect x="108.1" y="154.9" transform="matrix(0.5254 0.8508 -0.8508 0.5254 196.4297 -27.7403)" fill="#131518" width="29.9" height="14.7"/>
</g>
<g>
	<polygon fill="#131518" points="100,164.6 93.3,109.4 137.4,143.2 	"/>
</g>
<g>
	
		<rect x="109.2" y="156.5" transform="matrix(0.5254 0.8508 -0.8508 0.5254 194.2805 -27.984)" fill="#15BAC6" width="26.1" height="7.3"/>
</g>
<g>
	<polygon fill="#15BAC6" points="102.5,159 97.4,116.4 131.4,142.5 	"/>
</g>
</svg>
