<?xml version="1.0" encoding="utf-8"?>
<!-- Generator: Adobe Illustrator 18.0.0, SVG Export Plug-In . SVG Version: 6.00 Build 0)  -->
<!DOCTYPE svg PUBLIC "-//W3C//DTD SVG 1.1//EN" "http://www.w3.org/Graphics/SVG/1.1/DTD/svg11.dtd">
<svg version="1.1" id="Layer_1" xmlns="http://www.w3.org/2000/svg" xmlns:xlink="http://www.w3.org/1999/xlink" x="0px" y="0px"
	 viewBox="0 0 1190.6 841.9" enable-background="new 0 0 1190.6 841.9" xml:space="preserve">
<g>
	<path fill-rule="evenodd" clip-rule="evenodd" fill="#1CBDC8" d="M287.6,187.1h642.6c36.4,0,66.1,29.8,66.1,66.1v340.2
		c0,36.4-29.8,66.1-66.1,66.1H287.6c-36.4,0-66.1-29.8-66.1-66.1V253.2C221.5,216.8,251.2,187.1,287.6,187.1z"/>
</g>
<g>
	<path fill="#FFFFFF" d="M911.5,626.5c-0.1,0-0.1,0-0.2,0h-11.1c-4,0-7.2-3.2-7.2-7.2s3.2-7.2,7.2-7.2h11.1c1,0,1.9,0,2.8-0.1
		c4-0.3,7.5,2.7,7.8,6.6c0.3,4-2.7,7.5-6.6,7.8C914,626.4,912.7,626.5,911.5,626.5z M856.8,626.5h-14.5c-4,0-7.2-3.2-7.2-7.2
		s3.2-7.2,7.2-7.2h14.5c4,0,7.2,3.2,7.2,7.2S860.8,626.5,856.8,626.5z M798.9,626.5h-14.5c-4,0-7.2-3.2-7.2-7.2s3.2-7.2,7.2-7.2
		h14.5c4,0,7.2,3.2,7.2,7.2S802.9,626.5,798.9,626.5z M741,626.5h-14.5c-4,0-7.2-3.2-7.2-7.2s3.2-7.2,7.2-7.2H741
		c4,0,7.2,3.2,7.2,7.2S745,626.5,741,626.5z M683.1,626.5h-14.5c-4,0-7.2-3.2-7.2-7.2s3.2-7.2,7.2-7.2h14.5c4,0,7.2,3.2,7.2,7.2
		S687.1,626.5,683.1,626.5z M625.3,626.5h-14.5c-4,0-7.2-3.2-7.2-7.2s3.2-7.2,7.2-7.2h14.5c4,0,7.2,3.2,7.2,7.2
		S629.3,626.5,625.3,626.5z M567.4,626.5h-14.5c-4,0-7.2-3.2-7.2-7.2s3.2-7.2,7.2-7.2h14.5c4,0,7.2,3.2,7.2,7.2
		S571.4,626.5,567.4,626.5z M509.5,626.5H495c-4,0-7.2-3.2-7.2-7.2s3.2-7.2,7.2-7.2h14.5c4,0,7.2,3.2,7.2,7.2
		S513.5,626.5,509.5,626.5z M451.6,626.5h-14.5c-4,0-7.2-3.2-7.2-7.2s3.2-7.2,7.2-7.2h14.5c4,0,7.2,3.2,7.2,7.2
		S455.6,626.5,451.6,626.5z M393.8,626.5h-14.5c-4,0-7.2-3.2-7.2-7.2s3.2-7.2,7.2-7.2h14.5c4,0,7.2,3.2,7.2,7.2
		S397.8,626.5,393.8,626.5z M335.9,626.5h-14.5c-4,0-7.2-3.2-7.2-7.2s3.2-7.2,7.2-7.2h14.5c4,0,7.2,3.2,7.2,7.2
		S339.9,626.5,335.9,626.5z M280.1,617.2c-1.6,0-3.2-0.5-4.5-1.6c-4.4-3.5-8.2-7.7-11.2-12.5c-2.1-3.4-1.1-7.8,2.3-10
		c3.4-2.1,7.8-1.1,10,2.3c2.1,3.4,4.8,6.4,8,8.9c3.1,2.5,3.6,7,1.2,10.2C284.4,616.3,282.2,617.2,280.1,617.2z M949.2,603.2
		c-1.1,0-2.2-0.3-3.3-0.8c-3.6-1.8-5-6.2-3.1-9.7c1.8-3.6,3-7.4,3.6-11.4c0.5-4,4.2-6.7,8.1-6.2c4,0.5,6.8,4.2,6.2,8.1
		c-0.7,5.6-2.4,11.1-5,16.1C954.3,601.8,951.8,603.2,949.2,603.2z M264,564.3c-4,0-7.2-3.2-7.2-7.2v-14.5c0-4,3.2-7.2,7.2-7.2
		s7.2,3.2,7.2,7.2v14.5C271.2,561.1,268,564.3,264,564.3z M953.8,546.1c-4,0-7.2-3.2-7.2-7.2v-14.5c0-4,3.2-7.2,7.2-7.2
		c4,0,7.2,3.2,7.2,7.2v14.5C961.1,542.8,957.8,546.1,953.8,546.1z M264,506.4c-4,0-7.2-3.2-7.2-7.2v-14.5c0-4,3.2-7.2,7.2-7.2
		s7.2,3.2,7.2,7.2v14.5C271.2,503.2,268,506.4,264,506.4z M953.8,488.2c-4,0-7.2-3.2-7.2-7.2v-14.5c0-4,3.2-7.2,7.2-7.2
		c4,0,7.2,3.2,7.2,7.2V481C961.1,485,957.8,488.2,953.8,488.2z M264,448.6c-4,0-7.2-3.2-7.2-7.2v-14.5c0-4,3.2-7.2,7.2-7.2
		s7.2,3.2,7.2,7.2v14.5C271.2,445.3,268,448.6,264,448.6z M953.8,430.3c-4,0-7.2-3.2-7.2-7.2v-14.5c0-4,3.2-7.2,7.2-7.2
		c4,0,7.2,3.2,7.2,7.2v14.5C961.1,427.1,957.8,430.3,953.8,430.3z M264,390.7c-4,0-7.2-3.2-7.2-7.2V369c0-4,3.2-7.2,7.2-7.2
		s7.2,3.2,7.2,7.2v14.5C271.2,387.4,268,390.7,264,390.7z M953.8,372.5c-4,0-7.2-3.2-7.2-7.2v-14.5c0-4,3.2-7.2,7.2-7.2
		c4,0,7.2,3.2,7.2,7.2v14.5C961.1,369.2,957.8,372.5,953.8,372.5z M264,332.8c-4,0-7.2-3.2-7.2-7.2v-14.5c0-4,3.2-7.2,7.2-7.2
		s7.2,3.2,7.2,7.2v14.5C271.2,329.6,268,332.8,264,332.8z M953.8,314.6c-4,0-7.2-3.2-7.2-7.2v-14.5c0-4,3.2-7.2,7.2-7.2
		c4,0,7.2,3.2,7.2,7.2v14.5C961.1,311.3,957.8,314.6,953.8,314.6z M264.1,274.9c-0.1,0-0.3,0-0.4,0c-4-0.2-7.1-3.6-6.8-7.6
		c0.3-5.7,1.6-11.2,3.7-16.4c1.5-3.7,5.8-5.4,9.5-3.9c3.7,1.5,5.4,5.8,3.9,9.5c-1.5,3.7-2.4,7.6-2.6,11.6
		C271.1,271.9,267.9,274.9,264.1,274.9z M949,257.5c-2.6,0-5.1-1.4-6.4-3.9c-1.9-3.6-4.3-6.8-7.3-9.5c-2.9-2.7-3.1-7.3-0.4-10.2
		c2.7-2.9,7.3-3.1,10.2-0.4c4.1,3.9,7.6,8.4,10.2,13.4c1.9,3.5,0.5,7.9-3,9.8C951.3,257.2,950.1,257.5,949,257.5z M299.9,235.2
		c-3.5,0-6.6-2.5-7.1-6.1c-0.6-3.9,2.1-7.7,6-8.3c2.6-0.4,5.1-0.7,7.8-0.6H321c4,0,7.2,3.2,7.2,7.2c0,4-3.2,7.2-7.2,7.2h-14.5
		c0,0,0,0,0,0c-1.8,0-3.7,0.1-5.5,0.4C300.6,235.1,300.3,235.2,299.9,235.2z M899.8,234.6h-14.5c-4,0-7.2-3.2-7.2-7.2
		c0-4,3.2-7.2,7.2-7.2h14.5c4,0,7.2,3.2,7.2,7.2C907,231.4,903.8,234.6,899.8,234.6z M841.9,234.6h-14.5c-4,0-7.2-3.2-7.2-7.2
		c0-4,3.2-7.2,7.2-7.2h14.5c4,0,7.2,3.2,7.2,7.2C849.1,231.4,845.9,234.6,841.9,234.6z M784,234.6h-14.5c-4,0-7.2-3.2-7.2-7.2
		c0-4,3.2-7.2,7.2-7.2H784c4,0,7.2,3.2,7.2,7.2C791.2,231.4,788,234.6,784,234.6z M726.1,234.6h-14.5c-4,0-7.2-3.2-7.2-7.2
		c0-4,3.2-7.2,7.2-7.2h14.5c4,0,7.2,3.2,7.2,7.2C733.4,231.4,730.1,234.6,726.1,234.6z M668.3,234.6h-14.5c-4,0-7.2-3.2-7.2-7.2
		c0-4,3.2-7.2,7.2-7.2h14.5c4,0,7.2,3.2,7.2,7.2C675.5,231.4,672.3,234.6,668.3,234.6z M610.4,234.6h-14.5c-4,0-7.2-3.2-7.2-7.2
		c0-4,3.2-7.2,7.2-7.2h14.5c4,0,7.2,3.2,7.2,7.2C617.6,231.4,614.4,234.6,610.4,234.6z M552.5,234.6H538c-4,0-7.2-3.2-7.2-7.2
		c0-4,3.2-7.2,7.2-7.2h14.5c4,0,7.2,3.2,7.2,7.2C559.7,231.4,556.5,234.6,552.5,234.6z M494.6,234.6h-14.5c-4,0-7.2-3.2-7.2-7.2
		c0-4,3.2-7.2,7.2-7.2h14.5c4,0,7.2,3.2,7.2,7.2C501.9,231.4,498.6,234.6,494.6,234.6z M436.8,234.6h-14.5c-4,0-7.2-3.2-7.2-7.2
		c0-4,3.2-7.2,7.2-7.2h14.5c4,0,7.2,3.2,7.2,7.2C444,231.4,440.7,234.6,436.8,234.6z M378.9,234.6h-14.5c-4,0-7.2-3.2-7.2-7.2
		c0-4,3.2-7.2,7.2-7.2h14.5c4,0,7.2,3.2,7.2,7.2C386.1,231.4,382.9,234.6,378.9,234.6z"/>
</g>
<g>
	<path fill-rule="evenodd" clip-rule="evenodd" fill="#148C8F" d="M562.8,167.4H655c9.9,0,17.9,8.1,17.9,17.9v120.8
		c0,9.9-8.1,17.9-17.9,17.9h-92.2c-9.9,0-17.9-8.1-17.9-17.9V185.3C544.9,175.5,553,167.4,562.8,167.4z"/>
</g>
<g>
	<path fill-rule="evenodd" clip-rule="evenodd" fill="#FFFFFF" d="M608.9,309.7c18.1,0,32.8-14.8,32.8-32.8
		c0-18.1-14.8-32.8-32.8-32.8c-18.1,0-32.8,14.8-32.8,32.8C576.1,294.9,590.8,309.7,608.9,309.7z"/>
</g>
<g>
	<path fill-rule="evenodd" clip-rule="evenodd" fill="#E5CA1E" d="M197,133.1l-17.9,8.2c-1.4,0.6-3,0-3.6-1.3l-29.8-64.6
		c-0.6-1.4,0-3,1.3-3.6l17.9-8.2c1.4-0.6,3,0,3.6,1.3l29.8,64.6C199,130.9,198.4,132.5,197,133.1z"/>
</g>
<g>
	<path fill-rule="evenodd" clip-rule="evenodd" fill="#E5CA1E" d="M124.4,182.3l-7,18.4c-0.5,1.4-2.1,2.1-3.5,1.6l-66.4-25.4
		c-1.4-0.5-2.1-2.1-1.6-3.5l7-18.4c0.5-1.4,2.1-2.1,3.5-1.6l66.4,25.4C124.2,179.3,124.9,180.9,124.4,182.3z"/>
</g>
<g>
	<path fill-rule="evenodd" clip-rule="evenodd" fill="#E5CA1E" d="M994.7,138.5l17.9,8.2c1.4,0.6,3,0,3.6-1.3l29.8-64.6
		c0.6-1.4,0-3-1.3-3.6l-17.9-8.2c-1.4-0.6-3,0-3.6,1.3l-29.8,64.6C992.8,136.2,993.4,137.9,994.7,138.5z"/>
</g>
<g>
	<path fill-rule="evenodd" clip-rule="evenodd" fill="#E5CA1E" d="M1067.4,187.6l7,18.4c0.5,1.4,2.1,2.1,3.5,1.6l66.4-25.4
		c1.4-0.5,2.1-2.1,1.6-3.5l-7-18.4c-0.5-1.4-2.1-2.1-3.5-1.6l-66.4,25.4C1067.5,184.7,1066.8,186.3,1067.4,187.6z"/>
</g>
<g>
	<g>
		<path fill-rule="evenodd" clip-rule="evenodd" fill="#E5CA1E" d="M1024.9,756.3h-10.6c-0.8,0-1.5-0.7-1.5-1.5v-38.4
			c0-0.8,0.7-1.5,1.5-1.5h10.6c0.8,0,1.5,0.7,1.5,1.5v38.4C1026.3,755.7,1025.7,756.3,1024.9,756.3z"/>
	</g>
	<g>
		<path fill-rule="evenodd" clip-rule="evenodd" fill="#E5CA1E" d="M1040,741.7h-40.6c-0.8,0-1.4-0.6-1.4-1.4v-10.5
			c0-0.8,0.6-1.4,1.4-1.4h40.6c0.8,0,1.4,0.6,1.4,1.4v10.5C1041.4,741,1040.8,741.7,1040,741.7z"/>
	</g>
</g>
<g>
	<g>
		<path fill-rule="evenodd" clip-rule="evenodd" fill="#E5CA1E" d="M130.8,619.2h-10.6c-0.8,0-1.5-0.7-1.5-1.5v-38.4
			c0-0.8,0.7-1.5,1.5-1.5h10.6c0.8,0,1.5,0.7,1.5,1.5v38.4C132.2,618.6,131.6,619.2,130.8,619.2z"/>
	</g>
	<g>
		<path fill-rule="evenodd" clip-rule="evenodd" fill="#E5CA1E" d="M145.9,604.5h-40.6c-0.8,0-1.4-0.6-1.4-1.4v-10.5
			c0-0.8,0.6-1.4,1.4-1.4h40.6c0.8,0,1.4,0.6,1.4,1.4v10.5C147.3,603.9,146.7,604.5,145.9,604.5z"/>
	</g>
</g>
<g>
	<g>
		<path fill-rule="evenodd" clip-rule="evenodd" fill="#DCDBDB" d="M873.8,797.7h-10.6c-0.8,0-1.5-0.7-1.5-1.5v-38.4
			c0-0.8,0.7-1.5,1.5-1.5h10.6c0.8,0,1.5,0.7,1.5,1.5v38.4C875.3,797,874.7,797.7,873.8,797.7z"/>
	</g>
	<g>
		<path fill-rule="evenodd" clip-rule="evenodd" fill="#DCDBDB" d="M888.9,783h-40.6c-0.8,0-1.4-0.6-1.4-1.4v-10.5
			c0-0.8,0.6-1.4,1.4-1.4h40.6c0.8,0,1.4,0.6,1.4,1.4v10.5C890.4,782.4,889.7,783,888.9,783z"/>
	</g>
</g>
<g>
	<g>
		<path fill-rule="evenodd" clip-rule="evenodd" fill="#DCDBDB" d="M144.1,735.9l-9.5-4.6c-0.7-0.4-1-1.2-0.7-1.9l16.8-34.6
			c0.4-0.7,1.2-1,1.9-0.7l9.5,4.6c0.7,0.4,1,1.2,0.7,1.9l-16.8,34.6C145.7,735.9,144.9,736.3,144.1,735.9z"/>
	</g>
	<g>
		<path fill-rule="evenodd" clip-rule="evenodd" fill="#DCDBDB" d="M164.1,729.3l-36.5-17.8c-0.7-0.3-1-1.2-0.7-1.9l4.6-9.4
			c0.3-0.7,1.2-1,1.9-0.7l36.5,17.8c0.7,0.3,1,1.2,0.7,1.9l-4.6,9.4C165.7,729.3,164.8,729.6,164.1,729.3z"/>
	</g>
</g>
<g>
	<g>
		<path fill-rule="evenodd" clip-rule="evenodd" fill="#DCDBDB" d="M591.7,87.5l-9.5-4.6c-0.7-0.4-1-1.2-0.7-1.9l16.8-34.6
			c0.4-0.7,1.2-1,1.9-0.7l9.5,4.6c0.7,0.4,1,1.2,0.7,1.9l-16.8,34.6C593.3,87.5,592.4,87.8,591.7,87.5z"/>
	</g>
	<g>
		<path fill-rule="evenodd" clip-rule="evenodd" fill="#DCDBDB" d="M611.6,80.9l-36.5-17.8c-0.7-0.3-1-1.2-0.7-1.9l4.6-9.4
			c0.3-0.7,1.2-1,1.9-0.7l36.5,17.8c0.7,0.3,1,1.2,0.7,1.9l-4.6,9.4C613.2,80.9,612.4,81.2,611.6,80.9z"/>
	</g>
</g>
</svg>
